<svg width="60" height="60" viewBox="0 0 60 60" fill="none" xmlns="http://www.w3.org/2000/svg">
<ellipse cx="30" cy="29.878" rx="29.6064" ry="30" transform="rotate(-90 30 29.878)" fill="#9EBDFF"/>
<rect width="31.5802" height="32" transform="translate(14 45.668) rotate(-90)" fill="#9EBDFF"/>
<path d="M28.6669 20.6673L28.6669 35.3652L22.1602 28.9439C21.6402 28.4308 20.7869 28.4308 20.2669 28.9439C20.1433 29.0657 20.0452 29.2103 19.9783 29.3694C19.9114 29.5286 19.877 29.6993 19.877 29.8716C19.877 30.0439 19.9114 30.2146 19.9783 30.3738C20.0452 30.5329 20.1433 30.6775 20.2669 30.7993L29.0535 39.4707C29.1769 39.5926 29.3234 39.6894 29.4847 39.7554C29.646 39.8215 29.8189 39.8555 29.9935 39.8555C30.1682 39.8555 30.3411 39.8215 30.5024 39.7554C30.6637 39.6894 30.8102 39.5926 30.9335 39.4707L39.7202 30.7993C39.8437 30.6774 39.9416 30.5328 40.0084 30.3737C40.0752 30.2145 40.1096 30.0439 40.1096 29.8716C40.1096 29.6993 40.0752 29.5287 40.0084 29.3696C39.9416 29.2104 39.8437 29.0658 39.7202 28.9439C39.5968 28.8221 39.4502 28.7255 39.2889 28.6595C39.1277 28.5936 38.9548 28.5597 38.7802 28.5597C38.6056 28.5597 38.4328 28.5936 38.2715 28.6595C38.1102 28.7255 37.9637 28.8221 37.8402 28.9439L31.3335 35.3652L31.3335 20.6673C31.3335 19.9436 30.7335 19.3515 30.0002 19.3515C29.2669 19.3515 28.6669 19.9436 28.6669 20.6673Z" fill="black"/>
</svg>
