<svg xmlns="http://www.w3.org/2000/svg" width="60" height="60" fill="none"><ellipse cx="30" cy="29.878" fill="#9EBDFF" rx="29.606" ry="30" transform="rotate(-90 30 29.878)"/><path fill="#9EBDFF" d="M14 45.668v-31.58h32v31.58z"/><path fill="#000" d="M28.667 20.667v14.698l-6.507-6.421a1.357 1.357 0 0 0-1.893 0 1.311 1.311 0 0 0-.39.928 1.296 1.296 0 0 0 .39.927l8.787 8.672a1.33 1.33 0 0 0 .94.385 1.342 1.342 0 0 0 .94-.385l8.786-8.672a1.311 1.311 0 0 0 .39-.927 1.297 1.297 0 0 0-.39-.928 1.332 1.332 0 0 0-.94-.384 1.345 1.345 0 0 0-.94.384l-6.507 6.421V20.667c0-.723-.6-1.316-1.333-1.316s-1.333.593-1.333 1.316Z"/></svg>