<svg width="30" height="30" viewBox="0 0 30 30" fill="none" xmlns="http://www.w3.org/2000/svg">
<circle cx="15" cy="15" r="15" fill="#33CC00"/>
<path d="M12.0001 19.2003L8.50006 15.7003C8.40853 15.6076 8.29953 15.5341 8.17937 15.4839C8.05921 15.4337 7.93028 15.4078 7.80006 15.4078C7.66983 15.4078 7.5409 15.4337 7.42074 15.4839C7.30058 15.5341 7.19158 15.6076 7.10006 15.7003C7.00742 15.7918 6.93387 15.9008 6.88367 16.0209C6.83347 16.1411 6.80762 16.27 6.80762 16.4003C6.80762 16.5305 6.83347 16.6594 6.88367 16.7796C6.93387 16.8997 7.00742 17.0087 7.10006 17.1003L11.2901 21.2903C11.6801 21.6803 12.3101 21.6803 12.7001 21.2903L23.3001 10.7003C23.3927 10.6087 23.4662 10.4997 23.5164 10.3796C23.5666 10.2594 23.5925 10.1305 23.5925 10.0003C23.5925 9.87003 23.5666 9.7411 23.5164 9.62094C23.4662 9.50078 23.3927 9.39177 23.3001 9.30025C23.2085 9.20761 23.0995 9.13406 22.9794 9.08386C22.8592 9.03366 22.7303 9.00781 22.6001 9.00781C22.4698 9.00781 22.3409 9.03366 22.2207 9.08386C22.1006 9.13406 21.9916 9.20761 21.9001 9.30025L12.0001 19.2003Z" fill="#FDFDFD"/>
</svg>
