<svg xmlns="http://www.w3.org/2000/svg" width="112" height="30" fill="none"><path fill="#0072FF" d="M23.96 26.129a14.264 14.264 0 0 1-4.374 2.578 14.317 14.317 0 0 1-5.02.898c-1.328 0-2.61-.175-3.847-.527a14.703 14.703 0 0 1-3.457-1.445 15.037 15.037 0 0 1-2.93-2.285 15.04 15.04 0 0 1-2.285-2.93 15.332 15.332 0 0 1-1.465-3.457 14.51 14.51 0 0 1-.508-3.848c0-1.328.17-2.61.508-3.847.352-1.237.84-2.39 1.465-3.457a14.78 14.78 0 0 1 2.285-2.95 14.459 14.459 0 0 1 2.93-2.265 14.23 14.23 0 0 1 3.457-1.465 14.005 14.005 0 0 1 3.847-.527c1.732 0 3.405.299 5.02.898a13.765 13.765 0 0 1 4.375 2.578l-2.969 4.883a8.279 8.279 0 0 0-2.91-2.031 8.804 8.804 0 0 0-3.516-.723 8.642 8.642 0 0 0-3.476.703 9.063 9.063 0 0 0-2.832 1.914 8.773 8.773 0 0 0-1.914 2.832 8.594 8.594 0 0 0-.703 3.457c0 1.224.234 2.377.703 3.457a9.128 9.128 0 0 0 1.914 2.813 9.064 9.064 0 0 0 2.832 1.914c1.08.469 2.24.703 3.476.703a9.016 9.016 0 0 0 3.516-.703 8.503 8.503 0 0 0 2.91-2.05l2.969 4.882Zm32.284-11.016c0 1.328-.176 2.611-.528 3.848a14.705 14.705 0 0 1-1.445 3.457 14.462 14.462 0 0 1-2.266 2.93 15.037 15.037 0 0 1-2.93 2.285 14.259 14.259 0 0 1-3.456 1.445c-1.237.352-2.52.527-3.848.527-1.328 0-2.61-.175-3.848-.527a14.704 14.704 0 0 1-3.457-1.445 15.037 15.037 0 0 1-2.93-2.285 15.04 15.04 0 0 1-2.284-2.93 15.334 15.334 0 0 1-1.465-3.457 14.51 14.51 0 0 1-.508-3.848c0-1.328.17-2.61.508-3.847.351-1.237.84-2.39 1.465-3.457a15.037 15.037 0 0 1 2.285-2.93 14.458 14.458 0 0 1 2.93-2.266 14.706 14.706 0 0 1 3.456-1.445 14.006 14.006 0 0 1 3.848-.527c1.328 0 2.61.175 3.848.527a14.26 14.26 0 0 1 6.386 3.71 14.258 14.258 0 0 1 3.71 6.387c.353 1.238.529 2.52.529 3.848Zm-5.567 0a8.593 8.593 0 0 0-.703-3.457 8.773 8.773 0 0 0-1.914-2.832 8.773 8.773 0 0 0-2.832-1.914 8.593 8.593 0 0 0-3.457-.703 8.642 8.642 0 0 0-3.477.703 9.063 9.063 0 0 0-2.831 1.914 8.774 8.774 0 0 0-1.915 2.832 8.595 8.595 0 0 0-.703 3.457c0 1.224.235 2.377.703 3.457a9.129 9.129 0 0 0 1.914 2.813 9.064 9.064 0 0 0 2.832 1.914c1.081.469 2.24.703 3.477.703a8.594 8.594 0 0 0 3.457-.703 8.773 8.773 0 0 0 2.832-1.914 9.128 9.128 0 0 0 1.914-2.813 8.593 8.593 0 0 0 .703-3.457Zm34.1-.117c0 1.29-.17 2.533-.508 3.73a13.755 13.755 0 0 1-1.407 3.34 14.82 14.82 0 0 1-2.187 2.832 14.056 14.056 0 0 1-2.832 2.188 14.251 14.251 0 0 1-3.36 1.426 13.947 13.947 0 0 1-3.71.488h-8.438V.992h8.438c1.289 0 2.526.17 3.71.508a13.682 13.682 0 0 1 6.192 3.613c.846.847 1.576 1.79 2.188 2.832a13.335 13.335 0 0 1 1.406 3.34 13.44 13.44 0 0 1 .508 3.711Zm-5.606 0a8.073 8.073 0 0 0-.664-3.262 8.122 8.122 0 0 0-1.797-2.656 8.324 8.324 0 0 0-2.676-1.816 8.073 8.073 0 0 0-3.261-.664H67.98v16.797h2.793a8.284 8.284 0 0 0 3.261-.645 8.343 8.343 0 0 0 4.473-4.473 8.212 8.212 0 0 0 .664-3.28ZM103.505 29h-5.586v-8.77a11.034 11.034 0 0 1-3.418-1.503 11.403 11.403 0 0 1-2.657-2.461 11.633 11.633 0 0 1-1.738-3.184 11.255 11.255 0 0 1-.605-3.691V.992h5.605v8.399c0 .768.144 1.497.43 2.187.3.677.703 1.27 1.21 1.777.509.508 1.101.912 1.778 1.211.69.287 1.42.43 2.188.43.768 0 1.491-.143 2.168-.43.69-.3 1.289-.703 1.797-1.21.507-.508.905-1.1 1.191-1.778.299-.69.449-1.42.449-2.187V.992h5.586v8.399c0 1.289-.208 2.52-.625 3.691a11.23 11.23 0 0 1-1.719 3.184c-.742.95-1.627 1.77-2.656 2.46a10.797 10.797 0 0 1-3.398 1.505V29Z"/></svg>