<svg xmlns="http://www.w3.org/2000/svg" width="30" height="30" fill="none"><circle cx="15" cy="15" r="15" fill="#E2E7EF"/><path fill="#FDFDFD" d="M21.795 20.19a.666.666 0 0 1 .205.472.64.64 0 0 1-.205.472.705.705 0 0 1-.495.195.732.732 0 0 1-.496-.195L15 15.607l-5.804 5.527a.718.718 0 0 1-.496.195.718.718 0 0 1-.495-.195.65.65 0 0 1-.205-.472.65.65 0 0 1 .205-.471l5.805-5.526-5.805-5.527A.651.651 0 0 1 8 8.667c0-.177.074-.347.205-.472A.719.719 0 0 1 8.7 8c.186 0 .364.07.496.195L15 13.722l5.804-5.527A.719.719 0 0 1 21.3 8c.185 0 .363.07.495.195a.651.651 0 0 1 .205.472.651.651 0 0 1-.205.471l-5.805 5.527 5.805 5.526Z"/></svg>