<svg width="200" height="47" viewBox="0 0 200 47" fill="none" xmlns="http://www.w3.org/2000/svg">
<g clip-path="url(#clip0_1893_5035)">
<path fill-rule="evenodd" clip-rule="evenodd" d="M11.8518 2.92969V46.8823H0V2.92969H11.8518Z" fill="#262626"/>
<path fill-rule="evenodd" clip-rule="evenodd" d="M17.7773 2.92969H42.9626C51.1446 2.92969 57.7773 9.4891 57.7773 17.5805C57.7773 25.672 51.1446 32.2314 42.9626 32.2314H29.6292V46.8823H17.7773V2.92969ZM29.6292 20.5107H42.9626C44.599 20.5107 45.9255 19.1988 45.9255 17.5805C45.9255 15.9623 44.599 14.6504 42.9626 14.6504H29.6292V20.5107Z" fill="#262626"/>
<path fill-rule="evenodd" clip-rule="evenodd" d="M102.222 2.92969V25.6385C102.222 30.8979 106.533 35.1616 111.852 35.1616C117.17 35.1616 121.481 30.8979 121.481 25.6385V2.92969H133.333V25.6385C133.333 37.3712 123.716 46.8823 111.852 46.8823C99.9876 46.8823 90.3701 37.3712 90.3701 25.6385V2.92969H102.222Z" fill="#262626"/>
<path fill-rule="evenodd" clip-rule="evenodd" d="M62.222 23.4409C62.222 12.1128 71.5079 2.92969 82.9627 2.92969H85.9256V14.6504H82.9627C78.0534 14.6504 74.0738 18.5861 74.0738 23.4409V24.906C74.0738 37.0431 64.1246 46.8823 51.8515 46.8823H50.3701V35.1616H51.8515C57.579 35.1616 62.222 30.57 62.222 24.906V23.4409Z" fill="#262626"/>
<path d="M200 4.39526C200 6.82269 198.011 8.79052 195.555 8.79052C193.101 8.79052 191.111 6.82269 191.111 4.39526C191.111 1.96782 193.101 0 195.555 0C198.011 0 200 1.96782 200 4.39526Z" fill="#262626"/>
<path d="M146.06 46.8825L151.715 23.4624L155.92 37.552C158.426 45.9555 170.463 45.9555 172.971 37.552L177.174 23.4624L182.83 46.8825H195.015L186.122 10.0555C184.008 1.29776 171.528 0.973493 168.951 9.60945L164.445 24.7108L159.939 9.60946C157.363 0.973544 144.882 1.29771 142.767 10.0555L133.875 46.8825H146.06Z" fill="#262626"/>
</g>
<defs>
<clipPath id="clip0_1893_5035">
<rect width="200" height="46.8828" fill="white"/>
</clipPath>
</defs>
</svg>
