<svg width="200" height="102" viewBox="0 0 200 102" fill="none" xmlns="http://www.w3.org/2000/svg">
<path d="M5.16992 59.0332H10.8358V86.8146H5.16992V59.0332Z" fill="#262626"/>
<path d="M14.1225 77.2955C14.1188 75.3001 14.7071 73.3483 15.813 71.6873C16.9189 70.0263 18.4927 68.7307 20.3352 67.9645C22.1776 67.1983 24.206 66.9959 26.1636 67.3829C28.1212 67.7699 29.92 68.7289 31.3322 70.1387C32.7446 71.5483 33.707 73.3453 34.0976 75.3021C34.4884 77.2589 34.2898 79.2877 33.527 81.1317C32.7642 82.9755 31.4716 84.5517 29.8126 85.6607C28.1538 86.7699 26.2032 87.3617 24.2078 87.3617C22.8806 87.3769 21.564 87.1271 20.3348 86.6267C19.1056 86.1265 17.9886 85.3859 17.0494 84.4483C16.1101 83.5109 15.3674 82.3953 14.8648 81.1669C14.3622 79.9387 14.1099 78.6225 14.1225 77.2955ZM28.5892 77.2955C28.567 76.4341 28.2912 75.5983 27.7964 74.8929C27.3016 74.1873 26.6098 73.6435 25.8074 73.3291C25.005 73.0147 24.1278 72.9441 23.2856 73.1257C22.4432 73.3073 21.6732 73.7333 21.0716 74.3503C20.4702 74.9673 20.064 75.7481 19.9039 76.5949C19.7438 77.4415 19.8369 78.3167 20.1716 79.1107C20.5064 79.9047 21.0678 80.5825 21.7856 81.0591C22.5036 81.5357 23.346 81.7901 24.2078 81.7903C24.7972 81.8069 25.3838 81.7011 25.9304 81.4795C26.477 81.2579 26.9718 80.9255 27.3836 80.5031C27.7952 80.0807 28.115 79.5777 28.3224 79.0257C28.53 78.4735 28.6208 77.8845 28.5892 77.2955Z" fill="#262626"/>
<path d="M57.069 67.7781V85.8709C57.069 92.2733 52.0642 94.9741 47.0028 94.9741C45.223 95.1065 43.441 94.7465 41.852 93.9337C40.263 93.1209 38.9284 91.8865 37.9942 90.3659L42.8668 87.5519C43.2534 88.3311 43.8652 88.9765 44.6228 89.4041C45.3804 89.8317 46.249 90.0221 47.1162 89.9503C47.6866 90.0455 48.2714 90.0083 48.8254 89.8415C49.3794 89.6749 49.8876 89.3833 50.311 88.9891C50.7342 88.5949 51.0614 88.1087 51.2672 87.5681C51.473 87.0275 51.5518 86.4469 51.4976 85.8709V84.1145C50.8316 84.9341 49.9816 85.5851 49.017 86.0149C48.0524 86.4447 47 86.6413 45.9452 86.5887C43.3806 86.5887 40.9212 85.5699 39.1076 83.7565C37.2942 81.9431 36.2754 79.4835 36.2754 76.9189C36.2754 74.3543 37.2942 71.8949 39.1076 70.0815C40.9212 68.2681 43.3806 67.2493 45.9452 67.2493C46.9994 67.2011 48.0502 67.3997 49.0142 67.8291C49.9782 68.2587 50.8286 68.9073 51.4976 69.7233V67.8347L57.069 67.7781ZM51.4976 76.9189C51.5354 76.0005 51.2974 75.0917 50.8146 74.3093C50.3316 73.5271 49.6258 72.9071 48.7878 72.5293C47.9498 72.1513 47.0178 72.0327 46.1118 72.1887C45.2058 72.3445 44.3672 72.7679 43.7038 73.4041C43.0402 74.0405 42.5822 74.8607 42.3886 75.7593C42.1948 76.6579 42.2744 77.5941 42.617 78.4471C42.9596 79.3003 43.5494 80.0313 44.3108 80.5465C45.0722 81.0619 45.9702 81.3375 46.8894 81.3383C47.4896 81.3807 48.0918 81.2971 48.6574 81.0925C49.2232 80.8879 49.7398 80.5673 50.174 80.1509C50.608 79.7345 50.9502 79.2317 51.1782 78.6751C51.4062 78.1185 51.515 77.5203 51.4976 76.9189Z" fill="#262626"/>
<path d="M60.3364 77.2955C60.3326 75.3001 60.921 73.3483 62.0268 71.6873C63.1328 70.0263 64.7066 68.7307 66.549 67.9645C68.3914 67.1983 70.4198 66.9959 72.3774 67.3829C74.335 67.7699 76.1338 68.7289 77.5462 70.1387C78.9584 71.5483 79.9208 73.3453 80.3116 75.3021C80.7022 77.2589 80.5036 79.2877 79.7408 81.1317C78.978 82.9755 77.6854 84.5517 76.0266 85.6607C74.3676 86.7699 72.417 87.3617 70.4216 87.3617C69.0946 87.3769 67.7778 87.1271 66.5486 86.6267C65.3194 86.1265 64.2024 85.3859 63.2632 84.4483C62.324 83.5109 61.5812 82.3953 61.0786 81.1669C60.576 79.9387 60.3236 78.6225 60.3364 77.2955ZM74.8032 77.2955C74.7808 76.4341 74.505 75.5983 74.0102 74.8929C73.5154 74.1873 72.8236 73.6435 72.0212 73.3291C71.219 73.0147 70.3418 72.9441 69.4994 73.1257C68.657 73.3073 67.887 73.7333 67.2854 74.3503C66.684 74.9673 66.2778 75.7481 66.1176 76.5949C65.9576 77.4415 66.0508 78.3167 66.3854 79.1107C66.7202 79.9047 67.2816 80.5825 67.9994 81.0591C68.7174 81.5357 69.5598 81.7901 70.4216 81.7903C71.008 81.8015 71.5904 81.6919 72.1326 81.4679C72.6746 81.2439 73.1648 80.9107 73.5724 80.4889C73.98 80.0673 74.2962 79.5659 74.5016 79.0165C74.7068 78.4671 74.7966 77.8811 74.7654 77.2955H74.8032Z" fill="#262626"/>
<path d="M83.1318 62.6775C83.1318 61.9977 83.3334 61.3331 83.711 60.7679C84.0888 60.2027 84.6256 59.7621 85.2536 59.5019C85.8818 59.2417 86.5728 59.1737 87.2396 59.3063C87.9064 59.4389 88.5188 59.7663 88.9996 60.2469C89.4804 60.7277 89.8076 61.3401 89.9402 62.0069C90.073 62.6737 90.0048 63.3649 89.7448 63.9929C89.4846 64.6209 89.044 65.1579 88.4788 65.5355C87.9134 65.9131 87.249 66.1147 86.569 66.1147C85.659 66.1099 84.7876 65.7461 84.144 65.1025C83.5004 64.4591 83.1368 63.5877 83.1318 62.6775ZM83.7172 67.7767H89.383V86.8139H83.7172V67.7767Z" fill="#262626"/>
<path d="M114.086 77.2959C114.154 78.5543 113.974 79.8139 113.554 81.0021C113.133 82.1903 112.483 83.2837 111.638 84.2193C110.794 85.1549 109.773 85.9143 108.634 86.4537C107.495 86.9931 106.26 87.3019 105.002 87.3623C103.945 87.4129 102.89 87.2313 101.911 86.8299C100.932 86.4285 100.053 85.8173 99.3357 85.0393V94.4823H93.6699V67.7773H99.3357V69.5715C100.053 68.7935 100.932 68.1823 101.911 67.7809C102.89 67.3795 103.945 67.1979 105.002 67.2485C106.259 67.3089 107.492 67.6171 108.629 68.1553C109.767 68.6937 110.787 69.4513 111.631 70.3849C112.475 71.3185 113.127 72.4095 113.548 73.5955C113.969 74.7815 114.152 76.0391 114.086 77.2959ZM108.42 77.2959C108.398 76.4095 108.116 75.5491 107.609 74.8213C107.102 74.0937 106.394 73.5303 105.57 73.2015C104.747 72.8725 103.845 72.7923 102.976 72.9709C102.108 73.1493 101.311 73.5787 100.684 74.2057C100.057 74.8327 99.6273 75.6297 99.4487 76.4983C99.2703 77.3669 99.3505 78.2687 99.6793 79.0921C100.008 79.9155 100.572 80.6245 101.299 81.1309C102.027 81.6375 102.888 81.9195 103.774 81.9419C104.393 81.9813 105.012 81.8877 105.592 81.6677C106.171 81.4475 106.697 81.1059 107.134 80.6659C107.57 80.2257 107.907 79.6973 108.123 79.1161C108.338 78.5349 108.427 77.9143 108.382 77.2959H108.42Z" fill="#262626"/>
<path d="M131.726 81.1111C131.726 85.4927 127.949 87.3623 123.794 87.3623C122.134 87.5093 120.468 87.1561 119.011 86.3483C117.554 85.5405 116.371 84.3151 115.616 82.8297L120.564 80.0157C120.765 80.7027 121.195 81.3003 121.783 81.7091C122.37 82.1179 123.08 82.3135 123.794 82.2631C125.173 82.2631 125.852 81.8287 125.852 81.0733C125.852 78.9769 116.409 80.0913 116.409 73.5189C116.409 69.3639 119.922 67.2675 123.964 67.2675C125.455 67.2223 126.932 67.5765 128.24 68.2939C129.548 69.0111 130.641 70.0653 131.405 71.3469L126.438 73.9533C126.219 73.4545 125.859 73.0301 125.403 72.7317C124.947 72.4333 124.414 72.2737 123.869 72.2723C122.887 72.2723 122.283 72.6501 122.283 73.3489C122.359 75.5207 131.726 74.0665 131.726 81.1111Z" fill="#262626"/>
<path d="M152.576 67.7773V86.8145H146.91V85.0393C146.251 85.8281 145.414 86.4497 144.469 86.8535C143.524 87.2573 142.496 87.4315 141.471 87.3623C137.693 87.3623 134.351 84.6237 134.351 79.4679V67.7773H140.016V78.6369C139.967 79.0997 140.021 79.5677 140.174 80.0071C140.328 80.4465 140.577 80.8461 140.905 81.1771C141.232 81.5081 141.629 81.7619 142.066 81.9203C142.504 82.0789 142.972 82.1377 143.435 82.0931C145.512 82.0931 146.967 80.8843 146.967 78.1837V67.7773H152.576Z" fill="#262626"/>
<path d="M185.325 75.1433V86.8149H179.659V75.6345C179.659 73.7459 178.734 72.4993 176.921 72.4993C175.108 72.4993 173.937 73.8403 173.937 76.0877V86.8149H168.271V75.6345C168.271 73.7459 167.364 72.4993 165.532 72.4993C163.7 72.4993 162.567 73.8403 162.567 76.0877V86.8149H156.901V67.7779H162.567V69.5343C163.159 68.7585 163.936 68.1431 164.827 67.7441C165.717 67.3449 166.693 67.1747 167.666 67.2491C168.644 67.2015 169.617 67.4081 170.49 67.8481C171.364 68.2883 172.109 68.9473 172.652 69.7609C173.284 68.9103 174.122 68.2337 175.086 67.7945C176.051 67.3553 177.111 67.1675 178.167 67.2491C182.473 67.2491 185.325 70.3841 185.325 75.1433Z" fill="#262626"/>
<path d="M190.159 67.6641C192.496 67.6641 194.39 65.7699 194.39 63.4335C194.39 61.0971 192.496 59.2031 190.159 59.2031C187.823 59.2031 185.929 61.0971 185.929 63.4335C185.929 65.7699 187.823 67.6641 190.159 67.6641Z" fill="#262626"/>
<path d="M69.2882 44.6231C80.2298 44.6231 89.0996 35.7531 89.0996 24.8115C89.0996 13.8699 80.2298 5 69.2882 5C58.3466 5 49.4766 13.8699 49.4766 24.8115C49.4766 35.7531 58.3466 44.6231 69.2882 44.6231Z" fill="#262626"/>
<path d="M113.576 44.6231C124.518 44.6231 133.388 35.7531 133.388 24.8115C133.388 13.8699 124.518 5 113.576 5C102.635 5 93.7646 13.8699 93.7646 24.8115C93.7646 35.7531 102.635 44.6231 113.576 44.6231Z" fill="#262626"/>
<path d="M44.8121 5H5.20801V44.6041H44.8121V5Z" fill="#262626"/>
</svg>
