<svg width="200" height="45" viewBox="0 0 200 45" fill="none" xmlns="http://www.w3.org/2000/svg">
<g clip-path="url(#clip0_1893_5056)">
<path d="M57.7046 23.3126C57.7444 22.5469 57.7444 21.7796 57.7046 21.0138H14.0851C14.0759 21.2046 14.0678 21.3966 14.0632 21.5885H4.92529L4.92069 21.8759H0V22.4506H4.91954L4.92644 22.7379H14.0632C14.0678 22.931 14.0747 23.1218 14.0862 23.3126H26.6092C26.5617 22.9313 26.5379 22.5475 26.5379 22.1632H44.9287C44.9287 22.5529 44.9057 22.9368 44.8575 23.3126H57.7046ZM57.6138 19.8644H44.6402C44.5394 19.4733 44.4126 19.0893 44.2609 18.7149H27.2092C27.0586 19.0874 26.931 19.4701 26.8299 19.8644H14.1747C14.1954 19.6724 14.2184 19.4805 14.2437 19.2897H5.10575L5.14483 19.0092H0V18.4345H5.23563L5.28851 18.1402H14.4264C14.4609 17.9483 14.5 17.7563 14.5414 17.5655H57.2494C57.4103 18.3184 57.5333 19.0851 57.6138 19.8644ZM56.9701 16.4161H42.9126C42.5811 16.0023 42.2146 15.6177 41.8172 15.2667H29.6517C29.2552 15.6184 28.8874 16.0023 28.5563 16.4161H14.8207C14.8724 16.2241 14.9276 16.0322 14.9851 15.8414H5.84713L5.94828 15.5184H0V14.9425H6.14023L6.22989 14.6908H15.3678C15.4368 14.4977 15.5103 14.3069 15.5862 14.1161H56.2034C56.5 14.8632 56.7563 15.6322 56.9701 16.4161ZM55.7092 12.9678H16.0805C16.1701 12.7747 16.2621 12.5839 16.3575 12.3931H7.22069L7.38276 12.0759H0V11.5011H7.69425L7.84023 11.2437H16.9782C17.0897 11.0506 17.2046 10.8586 17.3218 10.669H54.4678C54.9253 11.4069 55.3414 12.1747 55.7092 12.9678ZM14.1747 24.4621H57.6149C57.5333 25.2414 57.4103 26.0092 57.2494 26.7609H43.7C43.9126 26.3931 44.1011 26.0092 44.2621 25.6115H27.2069C27.3678 26.0092 27.5552 26.3931 27.7678 26.7609H14.5402C14.4993 26.5699 14.461 26.3783 14.4253 26.1862H5.28851C5.26978 26.0852 5.25178 25.984 5.23448 25.8828H0V25.308H5.14368C5.13048 25.2177 5.11784 25.1273 5.10575 25.0368H14.2437C14.2182 24.8455 14.1952 24.6539 14.1747 24.4621ZM14.8195 27.9103H56.969C56.7563 28.6954 56.5 29.4621 56.2034 30.2092H40.1897C40.7721 29.8859 41.3178 29.5005 41.8172 29.0598H29.6517C30.1512 29.5005 30.6969 29.8859 31.2793 30.2092H15.5862C15.5108 30.0186 15.4379 29.8271 15.3678 29.6345H6.22989L6.13103 29.3575H0V28.7828H5.94023C5.90888 28.6837 5.87822 28.5845 5.84828 28.4851H14.9851C14.9276 28.2943 14.8724 28.1034 14.8195 27.9103ZM16.0805 31.3586H55.7092C55.3417 32.149 54.9272 32.9167 54.4678 33.6575H17.3218C17.204 33.4677 17.089 33.2761 16.977 33.0828H7.84023C7.78276 32.9839 7.72644 32.8851 7.67126 32.7851H0V32.2103H7.36207L7.22069 31.9345H16.3586C16.2631 31.7443 16.1704 31.5527 16.0805 31.3598V31.3586ZM19.4483 36.531C19.6172 36.7264 19.7908 36.9172 19.9678 37.1057H51.8218C52.5002 36.3828 53.1289 35.6148 53.7034 34.8069H18.0862C18.2241 35.0011 18.3644 35.1931 18.5092 35.3816H9.37126L9.59885 35.6747H0V36.2494H10.069C10.1483 36.3448 10.2287 36.4379 10.3103 36.531H19.4483ZM23.2609 39.9793C23.5402 40.1782 23.8241 40.3701 24.1115 40.554H47.6782C48.7361 39.8746 49.7336 39.1055 50.6598 38.2552H21.131C21.3437 38.4506 21.5609 38.6425 21.7816 38.8299H12.6437C12.7678 38.9356 12.8931 39.0391 13.0195 39.1402H0V39.7149H13.7609C13.8805 39.8046 14.0023 39.8931 14.1241 39.9793H23.2621H23.2609ZM31.3264 43.5241C32.8 43.8379 34.3276 44.0023 35.8943 44.0023C39.4046 44.0023 42.7207 43.1747 45.6586 41.7034H26.1299C26.5391 41.908 26.954 42.1 27.3759 42.2782H18.2379C18.4011 42.3471 18.5655 42.4149 18.7299 42.4805H0V43.0552H20.3736C22.3931 43.6713 24.5368 44.0023 26.7575 44.0023C28.3241 44.0023 29.8529 43.8379 31.3264 43.5241ZM18.0862 9.51954H53.7034C53.1289 8.71163 52.5003 7.94358 51.8218 7.22069H19.9678C19.7908 7.4092 19.6172 7.6 19.4471 7.7954H10.3103L10.108 8.03218H0V8.6069H9.63448C9.54598 8.71839 9.45862 8.83103 9.37241 8.94483H18.5092C18.3644 9.13448 18.2241 9.32644 18.0862 9.51954ZM21.1299 6.07126H50.6586C49.7329 5.22097 48.7357 4.45186 47.6782 3.77241H24.1115C23.8241 3.95747 23.5402 4.14943 23.2609 4.34713H14.1241C13.9977 4.43793 13.8713 4.52874 13.7471 4.62184H0V5.19655H13.0069C12.8851 5.2954 12.7644 5.3954 12.6448 5.49655H21.7816C21.5609 5.68391 21.3437 5.87586 21.1299 6.07126ZM26.131 2.62299H45.6598C42.6286 1.10625 39.2849 0.319023 35.8954 0.324138C34.3276 0.324138 32.8 0.489655 31.3264 0.803448C29.8244 0.484139 28.293 0.323487 26.7575 0.324138C24.3046 0.324138 21.9471 0.728736 19.746 1.47356H0V2.04828H27.3759C26.955 2.22669 26.5398 2.41836 26.131 2.62299ZM127.871 0C128.626 0 129.22 0.188506 129.651 0.565517C130.1 0.925287 130.324 1.42759 130.324 2.07586C130.324 2.72299 130.1 3.23448 129.651 3.61149C129.22 3.97126 128.626 4.15172 127.871 4.15172C127.117 4.15172 126.515 3.97126 126.066 3.61149C125.634 3.23448 125.418 2.72299 125.418 2.07586C125.418 1.42874 125.634 0.926437 126.066 0.565517C126.515 0.188506 127.117 0 127.871 0ZM129.974 6.65747V18.3828C129.974 19.1379 130.1 19.6506 130.352 19.9195C130.621 20.1897 131.07 20.3241 131.699 20.3241V20.8897C131.196 20.8651 130.693 20.8471 130.19 20.8356C129.498 20.7995 128.806 20.7815 128.114 20.7816C127.414 20.7816 126.703 20.8 125.985 20.8356C125.446 20.8475 124.907 20.8655 124.368 20.8897V20.3241C124.997 20.3241 125.437 20.1897 125.688 19.9195C125.957 19.6506 126.093 19.1379 126.093 18.3828V9.89195C126.093 9.08391 125.967 8.48966 125.715 8.11379C125.482 7.71839 125.032 7.52069 124.368 7.52069V6.95402C124.943 7.00805 125.5 7.03448 126.039 7.03448C126.793 7.03448 127.494 7.00805 128.141 6.95402C128.806 6.88276 129.417 6.78391 129.974 6.65747Z" fill="#262626"/>
<path fill-rule="evenodd" clip-rule="evenodd" d="M137.56 9.1306V6.65704C137.004 6.78347 136.392 6.88233 135.728 6.95359C135.062 7.00761 134.361 7.03405 133.624 7.03405C133.085 7.03405 132.529 7.00761 131.953 6.95359V7.52026C132.6 7.52026 133.05 7.71796 133.301 8.11336C133.553 8.49037 133.678 9.08347 133.678 9.89152V23.3697C133.678 24.0881 133.553 24.5731 133.301 24.8249C133.068 25.0766 132.654 25.2019 132.061 25.2019V25.7685L133.49 25.6881C134.146 25.6698 134.802 25.6606 135.458 25.6605C136.374 25.6605 137.237 25.6697 138.045 25.6869C138.872 25.7237 139.519 25.7501 139.986 25.7674V25.2019C139.231 25.2019 138.638 25.0582 138.207 24.7708C137.776 24.5019 137.56 23.9444 137.56 23.0996V20.3984C137.797 20.5961 138.075 20.7593 138.396 20.8892C138.97 21.1421 139.608 21.2674 140.309 21.2674C141.262 21.2674 142.115 21.0961 142.87 20.7547C143.638 20.4171 144.313 19.8994 144.838 19.2455C145.395 18.5628 145.817 17.7272 146.105 16.7386C146.411 15.7501 146.563 14.6007 146.563 13.2881C146.563 11.7973 146.347 10.557 145.916 9.56853C145.485 8.56164 144.909 7.81681 144.191 7.33175C143.473 6.82857 142.615 6.56434 141.738 6.57658C140.696 6.57658 139.78 6.84554 138.989 7.38462C138.367 7.80416 137.891 8.38577 137.56 9.13175V9.1306ZM137.56 10.057V19.8283C137.709 20.0053 137.89 20.1524 138.099 20.2697C138.44 20.449 138.827 20.5386 139.259 20.5386C140.067 20.5386 140.705 20.2697 141.173 19.7306C141.639 19.1731 141.972 18.4007 142.169 17.4122C142.385 16.4065 142.493 15.2111 142.493 13.8272C142.493 12.2823 142.394 11.0685 142.197 10.1881C141.999 9.30761 141.729 8.67888 141.388 8.30187C141.046 7.9237 140.634 7.7352 140.147 7.7352C139.501 7.7352 138.908 7.98807 138.369 8.49037C137.963 8.88118 137.693 9.40416 137.56 10.057Z" fill="#262626"/>
<path d="M152.751 6.57643C153.507 6.57643 154.162 6.67528 154.719 6.87298C155.294 7.05229 155.708 7.23275 155.96 7.41206C156.57 7.82586 156.948 7.55574 157.092 6.60287H157.657C157.622 7.10632 157.594 7.72701 157.577 8.46264C157.558 9.18218 157.549 10.1431 157.549 11.3477H156.984C156.891 10.6737 156.719 10.0132 156.471 9.37988C156.242 8.76529 155.862 8.2182 155.366 7.78908C154.899 7.37528 154.288 7.16839 153.533 7.16839C153.012 7.16839 152.572 7.32241 152.212 7.62816C151.853 7.91551 151.673 8.33735 151.673 8.89482C151.673 9.4339 151.835 9.90977 152.158 10.3236C152.483 10.719 152.895 11.1052 153.399 11.4822C153.919 11.8419 154.458 12.2282 155.016 12.6408C155.609 13.0902 156.148 13.5396 156.633 13.9891C157.098 14.3956 157.49 14.8788 157.792 15.4178C158.08 15.9385 158.224 16.558 158.224 17.2776C158.224 18.0856 157.989 18.7948 157.523 19.4063C157.055 19.9994 156.435 20.458 155.663 20.781C154.908 21.1052 154.063 21.2672 153.13 21.2672C152.639 21.2728 152.15 21.2184 151.673 21.1052C151.3 21.0121 150.938 20.8763 150.595 20.7006C150.362 20.5925 150.137 20.4937 149.922 20.404C149.738 20.3032 149.549 20.2133 149.355 20.1351C149.176 20.081 149.014 20.1431 148.87 20.3236C148.745 20.5029 148.646 20.7546 148.573 21.0776H148.008C148.043 20.5029 148.071 19.8017 148.088 18.9753C148.107 18.1488 148.116 17.0523 148.116 15.6879H148.681C148.789 16.658 148.987 17.5201 149.274 18.2741C149.562 19.0121 149.948 19.596 150.433 20.027C150.937 20.4408 151.565 20.6477 152.32 20.6477C152.626 20.6477 152.923 20.5845 153.21 20.458C153.497 20.3316 153.731 20.1247 153.911 19.8374C154.109 19.55 154.208 19.1822 154.208 18.7339C154.208 17.9419 153.947 17.2856 153.425 16.7649C152.923 16.2442 152.276 15.6776 151.485 15.0672C150.91 14.5994 150.362 14.1419 149.841 13.6925C149.358 13.2508 148.941 12.7426 148.601 12.1833C148.273 11.6092 148.105 10.9572 148.116 10.296C148.116 9.48793 148.331 8.80517 148.762 8.2477C149.202 7.68441 149.79 7.25493 150.461 7.00747C151.19 6.71812 151.967 6.57178 152.751 6.57643ZM186.212 6.87298C185.745 6.67528 185.134 6.57643 184.379 6.57643C183.534 6.56785 182.7 6.77179 181.954 7.16954C181.217 7.54655 180.633 8.18448 180.201 9.08333V6.65804C179.645 6.78333 179.033 6.88218 178.369 6.95344C177.722 7.00747 177.02 7.0339 176.266 7.0339C175.727 7.0339 175.17 7.00747 174.595 6.95344V7.52011C175.26 7.52011 175.709 7.71781 175.942 8.11321C176.194 8.49023 176.319 9.08333 176.319 9.89137V18.3822C176.319 19.1374 176.185 19.65 175.916 19.919C175.664 20.1891 175.224 20.3236 174.595 20.3236V20.8891C175.134 20.8649 175.673 20.8469 176.212 20.8351C176.913 20.7996 177.614 20.7816 178.315 20.781C178.943 20.781 179.555 20.7994 180.147 20.8351C180.758 20.8534 181.208 20.8718 181.495 20.8891V20.3236C181.029 20.3236 180.695 20.1891 180.497 19.919C180.3 19.65 180.201 19.1374 180.201 18.3822V10.8891C180.201 10.296 180.318 9.76609 180.551 9.29827C180.803 8.81321 181.126 8.4362 181.522 8.16724C181.901 7.90265 182.353 7.76139 182.816 7.76264C183.23 7.76264 183.534 7.86149 183.732 8.05919C183.948 8.2385 184.092 8.49942 184.164 8.8408C184.235 9.16379 184.271 9.54999 184.271 9.99942V18.3822C184.271 19.1374 184.172 19.65 183.974 19.919C183.795 20.1891 183.463 20.3236 182.978 20.3236V20.8891C183.301 20.8718 183.777 20.8534 184.407 20.8351C185.681 20.7623 186.959 20.7623 188.234 20.8351C188.899 20.8534 189.393 20.8718 189.716 20.8891V20.3236C189.141 20.3236 188.737 20.1891 188.503 19.919C188.27 19.65 188.153 19.1374 188.153 18.3822V11.0086L188.151 10.9247L188.147 10.6523C188.188 10.2017 188.309 9.76201 188.503 9.35344C188.755 8.86724 189.078 8.48103 189.473 8.19367C189.869 7.90632 190.301 7.76264 190.768 7.76264C191.234 7.76264 191.577 7.86149 191.792 8.05919C192.025 8.2385 192.178 8.49942 192.25 8.8408C192.34 9.16379 192.385 9.54999 192.385 9.99942V18.3822C192.385 19.1374 192.286 19.65 192.088 19.919C191.909 20.1891 191.577 20.3236 191.091 20.3236V20.8891C191.415 20.8718 191.891 20.8534 192.519 20.8351C193.157 20.7989 193.795 20.7809 194.433 20.781C195.099 20.781 195.772 20.7994 196.455 20.8351C197.138 20.8534 197.65 20.8718 197.992 20.8891V20.3236C197.363 20.3236 196.914 20.1891 196.643 19.919C196.392 19.65 196.266 19.1374 196.266 18.3822V11.1316C196.266 10.2328 196.203 9.51436 196.078 8.97528C195.951 8.41781 195.746 7.96954 195.457 7.62816C195.17 7.30402 194.793 7.05344 194.325 6.87298C193.858 6.67528 193.247 6.57643 192.493 6.57643C191.577 6.57643 190.714 6.76494 189.906 7.14195C189.131 7.51206 188.503 8.21781 188.022 9.25919C188.005 9.16404 187.986 9.06937 187.964 8.97528C187.839 8.41781 187.632 7.96954 187.345 7.62816C187.057 7.30402 186.679 7.05344 186.212 6.87298ZM172.48 17.9511V6.65689C171.923 6.78333 171.312 6.88218 170.647 6.95344C170.001 7.00747 169.3 7.0339 168.545 7.0339C168.006 7.0339 167.449 7.00747 166.873 6.95344V7.52011C167.539 7.52011 167.988 7.71781 168.222 8.11321C168.473 8.49023 168.599 9.08333 168.599 9.89137V16.9534C168.599 17.5465 168.473 18.0856 168.222 18.5707C168.008 19.0148 167.683 19.3958 167.278 19.6764C166.901 19.9462 166.447 20.088 165.984 20.081C165.535 20.081 165.194 19.9902 164.96 19.8109C164.717 19.599 164.548 19.3163 164.474 19.0029C164.398 18.6122 164.362 18.2147 164.366 17.8167V6.65689C163.81 6.78333 163.199 6.88218 162.534 6.95344C161.887 7.00747 161.186 7.0339 160.432 7.0339C159.893 7.0339 159.335 7.00747 158.761 6.95344V7.52011C159.425 7.52011 159.874 7.71781 160.108 8.11321C160.36 8.49023 160.485 9.08333 160.485 9.89137V16.7109C160.485 17.5914 160.548 18.3109 160.674 18.8672C160.8 19.4247 161.016 19.8741 161.32 20.2155C161.591 20.5213 161.958 20.773 162.426 20.9707C162.893 21.1672 163.504 21.2672 164.26 21.2672C165.194 21.2672 166.038 21.0776 166.793 20.7006C167.565 20.3052 168.168 19.658 168.599 18.7603V21.1856C169.201 21.0374 169.814 20.9382 170.432 20.8891C171.079 20.8351 171.779 20.8086 172.534 20.8086C173.092 20.8086 173.648 20.8351 174.206 20.8891V20.3236C173.558 20.3236 173.109 20.1351 172.857 19.7569C172.606 19.3615 172.48 18.7603 172.48 17.9523V17.9511Z" fill="#262626"/>
<path fill-rule="evenodd" clip-rule="evenodd" d="M120.34 7.30368C119.351 6.81862 118.201 6.57609 116.889 6.57609C115.613 6.57609 114.472 6.81862 113.466 7.30368C112.478 7.78873 111.696 8.57034 111.122 9.64851C110.564 10.7267 110.285 12.1554 110.285 13.9347C110.285 15.714 110.564 17.1416 111.12 18.2209C111.695 19.2807 112.477 20.0531 113.465 20.5382C114.472 21.0232 115.613 21.2669 116.889 21.2669C118.201 21.2669 119.351 21.0232 120.34 20.5382C121.327 20.0531 122.101 19.2807 122.657 18.2209C123.215 17.1428 123.493 15.714 123.493 13.9347C123.493 12.1554 123.215 10.7278 122.657 9.64851C122.101 8.57034 121.327 7.78873 120.34 7.30368ZM115.084 8.73241C115.569 7.65425 116.171 7.11517 116.889 7.11517C117.626 7.11517 118.228 7.65425 118.695 8.73241C119.18 9.79218 119.423 11.5267 119.423 13.9347C119.423 16.3428 119.18 18.0772 118.695 19.137C118.228 20.1968 117.626 20.7278 116.889 20.7278C116.171 20.7278 115.569 20.1968 115.084 19.137C114.599 18.0772 114.356 16.3428 114.356 13.9347C114.356 11.5267 114.597 9.79218 115.084 8.73241ZM101.495 25.9566C100.38 25.9566 99.3836 25.8577 98.5031 25.66C97.6411 25.4807 96.9583 25.1933 96.4549 24.7979C95.9698 24.4198 95.7273 23.9531 95.7273 23.3956C95.7273 22.8382 95.9778 22.3359 96.4813 21.8864C96.9847 21.4554 97.7307 21.114 98.7192 20.8623L98.9606 21.2933C98.652 21.5251 98.3952 21.8187 98.2066 22.1554C98.0629 22.4795 97.9905 22.8117 97.9905 23.1531C97.9905 23.9083 98.3319 24.483 99.0158 24.8772C99.7169 25.291 100.659 25.4979 101.846 25.4979C102.654 25.4979 103.373 25.3899 104.002 25.1749C104.649 24.9588 105.151 24.6347 105.511 24.2048C105.889 23.7726 106.078 23.2428 106.078 22.614C106.078 22.0749 105.88 21.6163 105.485 21.2393C105.089 20.8795 104.299 20.7002 103.112 20.7002H101.441C100.705 20.7002 100.057 20.6198 99.5008 20.4577C98.9606 20.2968 98.5388 20.0439 98.233 19.7025C97.9284 19.3439 97.7755 18.8945 97.7755 18.3554C97.7755 17.6002 98.0721 16.9359 98.6652 16.36C99.1296 15.9094 99.771 15.4807 100.589 15.0749C100.051 15.008 99.5228 14.8788 99.0146 14.6899C98.2066 14.3841 97.5686 13.9163 97.102 13.2876C96.6342 12.6588 96.4008 11.8508 96.4008 10.8623C96.4008 9.87379 96.6342 9.0646 97.102 8.43586C97.5686 7.78873 98.2066 7.32092 99.0158 7.03356C99.8238 6.72896 100.74 6.57609 101.764 6.57609C102.789 6.57609 103.705 6.72896 104.513 7.03471C105.047 7.22322 105.504 7.49103 105.889 7.83586C106.118 7.50598 106.396 7.21172 106.724 6.9531C107.335 6.48644 107.992 6.25195 108.692 6.25195C109.266 6.25195 109.699 6.41402 109.986 6.73816C110.292 7.04276 110.445 7.44736 110.445 7.9508C110.445 8.48988 110.3 8.89333 110.012 9.16345C109.725 9.41632 109.402 9.54161 109.042 9.54161C108.726 9.53742 108.421 9.42276 108.18 9.21747C107.927 9.00138 107.785 8.67839 107.749 8.24736C107.718 7.86115 107.826 7.38299 108.073 6.81057C107.549 7.03356 107.145 7.28759 106.859 7.57379C106.645 7.78099 106.457 8.01466 106.301 8.26919C106.345 8.32322 106.387 8.37954 106.427 8.43586C106.895 9.0646 107.128 9.87264 107.128 10.8611C107.128 11.8497 106.895 12.6588 106.427 13.2876C105.961 13.9163 105.323 14.3841 104.513 14.6899C103.705 14.9945 102.789 15.1474 101.764 15.1474C101.611 15.1475 101.457 15.1441 101.304 15.137C101.062 15.3014 100.828 15.4761 100.605 15.66C100.467 15.7683 100.356 15.9077 100.281 16.0668C100.206 16.2259 100.17 16.4003 100.174 16.5761C100.174 17.1508 100.534 17.4382 101.253 17.4382H104.19C105.179 17.4382 106.059 17.5554 106.832 17.7887C107.623 18.0232 108.242 18.4094 108.692 18.9485C109.159 19.4692 109.393 20.152 109.393 20.9968C109.393 21.8772 109.105 22.6945 108.531 23.4497C107.973 24.2048 107.111 24.806 105.942 25.2554C104.774 25.7232 103.292 25.9566 101.495 25.9566ZM101.764 14.6623C102.25 14.6623 102.626 14.3933 102.896 13.8543C103.166 13.2968 103.301 12.2991 103.301 10.8623C103.301 9.42437 103.166 8.43586 102.896 7.89678C102.627 7.33931 102.25 7.06115 101.765 7.06115C101.297 7.06115 100.92 7.33931 100.633 7.89678C100.363 8.43586 100.228 9.42437 100.228 10.8623C100.228 12.2991 100.363 13.2968 100.633 13.8543C100.92 14.3933 101.297 14.6623 101.764 14.6623ZM92.2376 7.30368C91.2491 6.81862 90.0997 6.57609 88.7882 6.57609C87.5123 6.57609 86.3709 6.81862 85.3652 7.30368C84.3767 7.78873 83.5951 8.57034 83.0204 9.64851C82.4629 10.7267 82.1836 12.1554 82.1836 13.9347C82.1836 15.714 82.4629 17.1416 83.0192 18.2209C83.5939 19.2807 84.3755 20.0531 85.3641 20.5382C86.3709 21.0232 87.5123 21.2669 88.7882 21.2669C90.0997 21.2669 91.2503 21.0232 92.2376 20.5382C93.2261 20.0531 93.9985 19.2807 94.556 18.2209C95.1135 17.1428 95.3916 15.714 95.3916 13.9347C95.3916 12.1554 95.1135 10.7278 94.556 9.64851C93.9997 8.57034 93.2261 7.78873 92.2376 7.30368ZM86.9813 8.73241C87.4675 7.65425 88.0687 7.11517 88.7882 7.11517C89.5238 7.11517 90.1261 7.65425 90.5928 8.73241C91.079 9.79218 91.3215 11.5267 91.3215 13.9347C91.3215 16.3428 91.079 18.0772 90.5939 19.137C90.1261 20.1968 89.525 20.7278 88.7882 20.7278C88.0687 20.7278 87.4664 20.1968 86.9813 19.137C86.4962 18.0772 86.2537 16.3428 86.2537 13.9347C86.2537 11.5267 86.4962 9.79218 86.9813 8.73241Z" fill="#262626"/>
<path d="M74.9242 1.80664V2.34687C74.3139 2.36411 73.8461 2.43538 73.5231 2.56181C73.3752 2.61187 73.2416 2.69682 73.1336 2.80946C73.0255 2.92211 72.9462 3.05914 72.9024 3.20894C72.7955 3.51354 72.7415 3.99974 72.7415 4.66411V18.3572C72.7415 18.9135 72.7771 19.3273 72.8495 19.5974C72.9392 19.8664 73.1012 20.0457 73.3346 20.1365C73.5863 20.2262 73.9553 20.271 74.4392 20.271H75.761C76.3702 20.271 76.9461 20.1273 77.4851 19.84C78.0254 19.5526 78.5093 19.148 78.9403 18.6262C79.3949 18.0466 79.7589 17.4013 80.0196 16.7124C80.307 15.9768 80.5219 15.1584 80.6656 14.2595H81.2863C81.2323 14.871 81.2058 15.6618 81.2058 16.6319C81.2058 17.0457 81.2139 17.6469 81.2323 18.4377C81.2507 19.2285 81.3035 20.0469 81.3932 20.8906C80.3607 20.8525 79.3275 20.8345 78.2943 20.8365C77.1449 20.8193 76.1196 20.8101 75.2208 20.8101H73.4966C72.7955 20.8101 72.0403 20.8193 71.2323 20.8365C70.4231 20.8365 69.6058 20.8457 68.7794 20.8641C67.9518 20.8641 67.1702 20.8733 66.4346 20.8906V20.3515C67.0093 20.3158 67.4403 20.2434 67.7277 20.1365C68.015 20.0285 68.2035 19.8124 68.2943 19.4894C68.4012 19.1653 68.4553 18.6802 68.4553 18.0331V4.66411C68.4553 3.99859 68.4012 3.51469 68.2943 3.20894C68.2589 3.05941 68.1859 2.92144 68.082 2.80816C67.9782 2.69489 67.8471 2.61008 67.7012 2.56181C67.4139 2.43538 66.9909 2.36411 66.4346 2.34572V1.80664C67.8535 1.85921 69.2733 1.88604 70.6932 1.8871C71.484 1.8871 72.2564 1.87905 73.0104 1.86066C73.784 1.84227 74.4219 1.82503 74.9242 1.80664Z" fill="#262626"/>
<path fill-rule="evenodd" clip-rule="evenodd" d="M195.254 43.1646C195.217 42.9715 195.242 42.7198 195.333 42.4095L199.129 28.6543C198.521 28.9036 197.892 29.0978 197.25 29.2348C196.591 29.3646 195.836 29.4348 194.983 29.4485L194.848 29.8554C195.481 29.8554 195.875 29.9589 196.03 30.1658C196.184 30.3727 196.204 30.6945 196.088 31.1336L195.189 34.5233C195.132 34.3597 195.035 34.2134 194.906 34.098C194.687 33.8911 194.383 33.7876 193.996 33.7876C193.221 33.7876 192.504 33.9623 191.845 34.3106C191.183 34.6726 190.587 35.1444 190.082 35.706C189.552 36.2751 189.102 36.914 188.745 37.6049C188.393 38.2772 188.114 38.985 187.912 39.7164C187.728 40.3463 187.63 40.9982 187.621 41.6543C187.621 42.2738 187.719 42.7842 187.912 43.1842C188.106 43.5715 188.371 43.8623 188.706 44.0554C189.042 44.2371 189.416 44.3267 189.83 44.3267C190.462 44.3267 191.031 44.1405 191.535 43.7658C192.038 43.3784 192.51 42.7842 192.95 41.983C193.134 41.6566 193.319 41.2899 193.503 40.883L193.375 41.3635C193.258 41.742 193.181 42.1313 193.143 42.5256C193.118 42.8612 193.143 43.1462 193.221 43.3784C193.375 44.0106 193.853 44.3279 194.654 44.3279C194.951 44.3279 195.254 44.2692 195.565 44.1531C195.875 44.0371 196.165 43.8371 196.436 43.552C196.721 43.2681 196.946 42.8623 197.114 42.3313L197.58 40.9175H197.212L196.902 41.7888C196.669 42.4485 196.45 42.8934 196.243 43.1256C196.049 43.3463 195.849 43.4554 195.642 43.4554C195.422 43.4554 195.294 43.3589 195.254 43.1646ZM194.221 38.1761C194.075 38.6486 193.917 39.098 193.744 39.5221C193.421 40.3497 193.079 41.06 192.716 41.6543C192.368 42.2348 192.026 42.6865 191.69 43.0106C191.354 43.3198 191.057 43.475 190.799 43.475C190.553 43.475 190.373 43.3589 190.257 43.1267C190.153 42.8807 190.102 42.5129 190.102 42.0221C190.102 41.3244 190.179 40.6141 190.334 39.8911C190.489 39.1554 190.702 38.4508 190.973 37.7796C191.223 37.1496 191.534 36.5459 191.903 35.9773C192.252 35.4348 192.62 35.0083 193.007 34.698C193.407 34.3876 193.802 34.2336 194.189 34.2336C194.448 34.2336 194.654 34.3244 194.81 34.5049C194.918 34.6221 195 34.7922 195.058 35.0175L194.221 38.1761Z" fill="#262626"/>
<path d="M182.362 44.055H179.979L182.304 35.7055C182.421 35.3182 182.459 35.0469 182.421 34.8917C182.382 34.7366 182.266 34.6596 182.071 34.6596C181.827 34.6596 181.6 34.7825 181.393 35.0274C181.186 35.2722 180.974 35.7055 180.754 36.3262L180.424 37.2354H180.057L180.56 35.7825C180.742 35.2653 180.967 34.8664 181.238 34.5814C181.509 34.2848 181.807 34.0779 182.13 33.9619C182.453 33.8458 182.782 33.7871 183.117 33.7871C183.531 33.7871 183.835 33.871 184.028 34.04C184.235 34.2078 184.365 34.4274 184.416 34.6986C184.482 34.991 184.494 35.2926 184.454 35.5894C184.429 35.8998 184.377 36.2032 184.299 36.4998L183.988 37.7147L184.067 37.5078C184.429 36.5906 184.777 35.8607 185.113 35.3182C185.462 34.763 185.83 34.3687 186.217 34.1366C186.597 33.9059 187.033 33.7849 187.477 33.7871C187.942 33.7871 188.297 33.9228 188.543 34.194C188.801 34.4653 188.93 34.8009 188.93 35.2021C188.93 35.5239 188.852 35.8285 188.698 36.1124C188.547 36.3788 188.334 36.6048 188.077 36.771C187.832 36.9262 187.548 37.0032 187.225 37.0032C186.902 37.0032 186.644 36.9193 186.45 36.7515C186.269 36.5837 186.178 36.3377 186.178 36.0159C186.178 35.7308 186.244 35.4733 186.373 35.24C186.497 35.0128 186.669 34.8149 186.876 34.6596C187.083 34.4917 187.309 34.3756 187.554 34.3101C187.527 34.2835 187.494 34.2638 187.458 34.2527C187.414 34.239 187.368 34.2324 187.322 34.2331C187.038 34.2331 186.747 34.3366 186.45 34.5435C186.153 34.7366 185.843 35.0538 185.52 35.4929C185.197 35.932 184.868 36.5124 184.532 37.2354C184.154 38.0903 183.817 38.9634 183.524 39.8515C183.378 40.2814 183.231 40.7435 183.084 41.2389L182.362 44.055Z" fill="#262626"/>
<path fill-rule="evenodd" clip-rule="evenodd" d="M175.123 41.0623L175.042 41.3635C174.919 41.801 174.835 42.2482 174.79 42.7003C174.751 43.1141 174.815 43.4623 174.983 43.7462C175.242 44.1336 175.681 44.3279 176.3 44.3279C176.598 44.3279 176.895 44.2692 177.192 44.1531C177.502 44.0371 177.792 43.8371 178.064 43.552C178.335 43.2554 178.561 42.8417 178.742 42.3129L179.227 40.8991H178.858L178.567 41.7704C178.335 42.4417 178.11 42.8876 177.89 43.1072C177.671 43.3256 177.457 43.4359 177.25 43.4359C177.082 43.4359 176.973 43.3842 176.921 43.2807C176.881 43.1492 176.867 43.0107 176.882 42.8738C176.907 42.7096 176.946 42.5477 176.998 42.3899L179.498 33.7876C179.109 33.8806 178.714 33.9455 178.315 33.9819C177.915 34.021 177.483 34.0463 177.018 34.0589L176.737 35.0957C176.725 34.8324 176.649 34.5762 176.514 34.3497C176.413 34.1731 176.266 34.0275 176.088 33.9284C175.911 33.8294 175.709 33.7807 175.506 33.7876C174.938 33.7876 174.371 33.9623 173.802 34.3106C173.197 34.6906 172.655 35.1612 172.194 35.706C171.672 36.3001 171.217 36.9496 170.837 37.6428C170.456 38.338 170.151 39.0721 169.927 39.8325C169.716 40.5166 169.605 41.2279 169.598 41.944C169.598 42.6681 169.766 43.2485 170.102 43.6876C170.437 44.1141 170.953 44.3267 171.651 44.3267C172.142 44.3267 172.613 44.1853 173.066 43.9014C173.53 43.6164 173.969 43.1451 174.383 42.4876C174.64 42.0911 174.885 41.6164 175.123 41.0623ZM173.453 43.029C173.156 43.3003 172.891 43.4359 172.659 43.4359C172.465 43.4359 172.317 43.3394 172.213 43.1451C172.122 42.9382 172.077 42.5968 172.077 42.1187C172.077 41.4336 172.154 40.7302 172.31 40.0072C172.465 39.283 172.672 38.5865 172.93 37.9152C173.202 37.2428 173.498 36.6428 173.821 36.1129C174.144 35.5842 174.467 35.1635 174.79 34.8531C175.126 34.5428 175.442 34.3888 175.74 34.3888C176.049 34.3888 176.268 34.544 176.398 34.8531C176.527 35.1336 176.56 35.5095 176.498 35.9796L175.926 38.0968L175.991 37.76C175.784 38.5865 175.538 39.3485 175.254 40.0463C175.007 40.67 174.709 41.2724 174.364 41.8474C174.053 42.3508 173.75 42.7451 173.453 43.029ZM166.994 42.4095C166.903 42.7198 166.877 42.9715 166.917 43.1646C166.954 43.3589 167.084 43.4554 167.304 43.4554C167.511 43.4554 167.711 43.3463 167.904 43.1267C168.111 42.8934 168.33 42.4485 168.563 41.7888L168.873 40.9175H169.241L168.776 42.3313C168.608 42.8612 168.382 43.2681 168.098 43.552C167.857 43.816 167.558 44.0216 167.226 44.1531C166.935 44.2659 166.627 44.3251 166.315 44.3279C165.515 44.3279 165.037 44.0106 164.882 43.3784C164.8 43.102 164.774 42.8121 164.805 42.5256C164.83 42.1899 164.907 41.8014 165.037 41.3635L165.165 40.883C164.98 41.2899 164.795 41.6566 164.611 41.983C164.172 42.7842 163.7 43.3784 163.197 43.7646C162.706 44.1354 162.106 44.3334 161.491 44.3279C161.079 44.3279 160.704 44.2359 160.368 44.0566C160.022 43.8519 159.745 43.548 159.574 43.1842C159.38 42.7842 159.283 42.2738 159.283 41.6543C159.283 41.06 159.38 40.4129 159.574 39.7164C159.767 39.006 160.045 38.3026 160.406 37.6049C160.764 36.9142 161.213 36.2754 161.743 35.706C162.273 35.1244 162.86 34.66 163.506 34.3106C164.169 33.961 164.908 33.7813 165.657 33.7876C166.044 33.7876 166.348 33.8911 166.567 34.098C166.694 34.2095 166.789 34.3508 166.851 34.5233L167.749 31.1336C167.866 30.6945 167.846 30.3715 167.691 30.1646C167.536 29.9577 167.142 29.8543 166.51 29.8543L166.645 29.4485C167.406 29.4442 168.164 29.3727 168.912 29.2348C169.554 29.0978 170.183 28.9036 170.791 28.6543L166.994 42.4095ZM165.405 39.5221C165.577 39.0968 165.737 38.6486 165.882 38.1761L166.72 35.0175C166.68 34.8289 166.594 34.653 166.471 34.5049C166.394 34.4158 166.299 34.3452 166.192 34.2982C166.085 34.2512 165.968 34.2291 165.851 34.2336C165.464 34.2336 165.069 34.3888 164.669 34.698C164.281 35.0083 163.913 35.4348 163.565 35.9773C163.196 36.5453 162.884 37.1487 162.635 37.7784C162.36 38.4623 162.146 39.1693 161.996 39.8911C161.843 40.5912 161.765 41.3055 161.763 42.0221C161.763 42.5129 161.814 42.8807 161.918 43.1256C162.034 43.3589 162.215 43.475 162.46 43.475C162.719 43.475 163.015 43.3198 163.351 43.0095C163.688 42.6876 164.029 42.2348 164.379 41.6531C164.781 40.9735 165.125 40.2606 165.405 39.5221Z" fill="#262626"/>
<path d="M148.614 44.0549H150.997L151.221 43.1791L151.21 43.2423C151.456 42.3377 151.733 41.4664 152.043 40.6262C152.344 39.8243 152.68 39.0359 153.05 38.263C153.399 37.5388 153.748 36.9066 154.097 36.3641C154.445 35.8216 154.781 35.4021 155.104 35.1044C155.427 34.794 155.723 34.64 155.995 34.64C156.214 34.64 156.35 34.717 156.402 34.8722C156.455 35.0482 156.462 35.2352 156.421 35.4147C156.382 35.6246 156.331 35.8319 156.266 36.0354L154.504 41.363C154.322 41.9055 154.219 42.3699 154.194 42.7572C154.167 43.1446 154.238 43.4618 154.406 43.7067C154.536 43.9009 154.717 44.0492 154.949 44.1526C155.195 44.2676 155.486 44.3273 155.821 44.3273C156.13 44.3273 156.441 44.2687 156.751 44.1526C157.074 44.0492 157.371 43.8549 157.642 43.571C157.926 43.2871 158.159 42.8733 158.34 42.3308L158.823 40.917H158.456L158.145 41.7883C157.9 42.4607 157.668 42.9055 157.449 43.125C157.242 43.3457 157.042 43.4549 156.848 43.4549C156.641 43.4549 156.512 43.371 156.46 43.202C156.408 43.0227 156.441 42.7572 156.557 42.4089L158.456 36.7124C158.623 36.2089 158.707 35.7377 158.707 35.2986C158.72 34.8469 158.598 34.4848 158.34 34.2135C158.094 33.9296 157.654 33.7883 157.022 33.7883C156.544 33.7883 156.086 33.8917 155.646 34.0975C155.207 34.3044 154.781 34.6653 154.368 35.1825C153.954 35.686 153.528 36.371 153.089 37.2354C152.798 37.8184 152.53 38.4132 152.288 39.0181L152.934 36.4998C153.012 36.1894 153.069 35.8791 153.108 35.5699C153.148 35.248 153.134 34.9561 153.069 34.6975C153.008 34.4304 152.849 34.1957 152.625 34.0388C152.405 33.871 152.082 33.7871 151.656 33.7871C151.138 33.7871 150.667 33.9296 150.241 34.2135C149.815 34.4975 149.466 35.0204 149.195 35.7825L148.691 37.2354H149.059L149.389 36.325C149.621 35.6929 149.834 35.2595 150.028 35.0273C150.235 34.7825 150.46 34.6595 150.706 34.6595C150.887 34.6595 150.997 34.7112 151.036 34.8147C151.087 34.9181 151.1 35.0469 151.074 35.2021C151.045 35.372 151.006 35.5401 150.958 35.7055L148.614 44.0549Z" fill="#262626"/>
<path fill-rule="evenodd" clip-rule="evenodd" d="M143.676 41.363L143.758 41.0618C143.551 41.5565 143.303 42.0333 143.018 42.4871C142.604 43.1446 142.165 43.617 141.699 43.9009C141.248 44.1848 140.776 44.3262 140.285 44.3262C139.588 44.3262 139.072 44.1135 138.736 43.6871C138.399 43.248 138.231 42.6676 138.231 41.9434C138.231 41.2722 138.342 40.5687 138.561 39.8319C138.785 39.0715 139.091 38.3374 139.472 37.6423C139.851 36.9488 140.306 36.2993 140.828 35.7055C141.289 35.1607 141.832 34.6901 142.436 34.3101C143.004 33.9618 143.573 33.7871 144.141 33.7871C144.58 33.7871 144.915 33.9745 145.149 34.3503C145.273 34.5423 145.348 34.7906 145.372 35.0952L145.652 34.0584C146.117 34.0457 146.55 34.0204 146.95 33.9814C147.364 33.9423 147.757 33.8779 148.131 33.7871L145.633 42.3906C145.58 42.5482 145.541 42.7101 145.516 42.8745C145.502 43.0113 145.515 43.1498 145.556 43.2814C145.607 43.3848 145.716 43.4365 145.884 43.4365C146.091 43.4365 146.304 43.3273 146.523 43.1078C146.743 42.8883 146.969 42.4411 147.202 41.771L147.492 40.8986H147.86L147.376 42.3124C147.196 42.8423 146.969 43.2549 146.698 43.5538C146.457 43.8171 146.159 44.0223 145.827 44.1538C145.543 44.2675 145.241 44.3268 144.935 44.3285C144.315 44.3285 143.876 44.1342 143.618 43.7469C143.45 43.463 143.385 43.1147 143.425 42.7009C143.47 42.2489 143.554 41.8005 143.676 41.363ZM141.292 43.4354C141.526 43.4354 141.79 43.2998 142.088 43.0285C142.384 42.7446 142.688 42.3503 142.998 41.8469C143.307 41.3434 143.605 40.7434 143.889 40.0457C144.173 39.348 144.419 38.586 144.626 37.7584L144.56 38.0963L145.133 35.9802C145.194 35.5089 145.16 35.1331 145.033 34.8538C144.903 34.5434 144.683 34.3883 144.373 34.3883C144.076 34.3883 143.76 34.5434 143.425 34.8526C143.102 35.163 142.779 35.5825 142.456 36.1124C142.133 36.6411 141.835 37.2423 141.564 37.9135C141.303 38.5938 141.096 39.2932 140.944 40.0055C140.792 40.6995 140.714 41.4077 140.712 42.1181C140.712 42.5963 140.757 42.9388 140.848 43.1446C140.951 43.3388 141.099 43.4354 141.292 43.4354Z" fill="#262626"/>
<path d="M139.575 34.4465L139.634 34.0592H137.326L138.238 30.8822C137.856 30.9762 137.468 31.0411 137.076 31.0764C136.676 31.1143 136.243 31.1408 135.778 31.1534L134.945 34.0592H133.182L133.085 34.4465H134.835L132.852 41.3638C132.684 41.9316 132.627 42.4419 132.678 42.8936C132.743 43.3327 132.923 43.6822 133.221 43.9396C133.53 44.1982 133.976 44.3281 134.558 44.3281C135.216 44.3281 135.784 44.1534 136.262 43.804C136.74 43.4557 137.115 42.881 137.386 42.0799L137.774 40.9178H137.405L137.115 41.712C136.882 42.358 136.624 42.8097 136.339 43.0684C136.068 43.327 135.797 43.4557 135.526 43.4557C135.419 43.4592 135.313 43.4383 135.216 43.3945C135.118 43.3506 135.033 43.2851 134.965 43.2028C134.835 43.0362 134.822 42.7718 134.926 42.4097L137.214 34.4465H139.575ZM133.159 30.204C133.03 30.5396 132.855 31.0316 132.636 31.6764C132.429 32.3086 132.223 33.1362 132.016 34.1557H131.629C131.667 33.9753 131.693 33.7879 131.706 33.5948C131.731 33.4215 131.744 33.2468 131.745 33.0718C131.745 32.5672 131.642 32.1293 131.435 31.7546C131.236 31.3616 130.917 31.0423 130.524 30.8431C130.124 30.6109 129.607 30.4948 128.975 30.4948C128.29 30.4948 127.708 30.6753 127.231 31.0373C126.753 31.3856 126.514 31.9477 126.514 32.7224C126.514 33.2005 126.623 33.6534 126.843 34.0787C127.076 34.4925 127.367 34.8994 127.715 35.2994C128.077 35.6867 128.458 36.081 128.858 36.481C129.259 36.8684 129.634 37.2695 129.982 37.6822C130.33 38.0959 130.615 38.535 130.835 38.9994C131.067 39.4523 131.183 39.9488 131.183 40.4913C131.183 41.1764 131.015 41.7638 130.68 42.2546C130.352 42.7367 129.922 43.1403 129.42 43.4362C128.893 43.7371 128.326 43.9591 127.735 44.0948C127.166 44.2467 126.58 44.3251 125.991 44.3281C125.409 44.3281 124.926 44.2822 124.538 44.1925C124.207 44.1301 123.887 44.019 123.589 43.8626C123.335 43.7236 123.083 43.5818 122.832 43.4373C122.718 43.3416 122.587 43.269 122.445 43.2235C122.355 43.1782 122.256 43.1516 122.155 43.1454C121.986 43.1454 121.845 43.2293 121.729 43.3982C121.577 43.6506 121.447 43.916 121.342 44.1913H120.953C121.273 43.4035 121.539 42.5947 121.749 41.7707C121.903 41.1764 122.077 40.4339 122.272 39.5419H122.659C122.605 39.7985 122.56 40.0569 122.523 40.3166C122.484 40.5753 122.472 40.8339 122.484 41.0925C122.523 41.9959 122.8 42.6936 123.318 43.1845C123.847 43.6753 124.622 43.9201 125.642 43.9201C126.507 43.9201 127.16 43.7396 127.599 43.3787C128.038 43.004 128.258 42.4615 128.258 41.7511C128.258 41.2086 128.154 40.7166 127.947 40.2787C127.752 39.8232 127.491 39.3987 127.173 39.0189C126.844 38.6259 126.502 38.2448 126.146 37.8764C125.79 37.5079 125.447 37.1264 125.119 36.7327C124.802 36.3415 124.535 35.9121 124.324 35.4546C124.113 34.9654 124.008 34.4369 124.015 33.904C124.015 33.2592 124.151 32.6971 124.422 32.2189C124.695 31.7525 125.065 31.3497 125.506 31.0373C125.958 30.7143 126.463 30.4717 126.998 30.3201C127.518 30.1558 128.06 30.0709 128.606 30.0684C129.304 30.0684 129.878 30.1523 130.33 30.3212C130.783 30.4879 131.17 30.689 131.493 30.9212L131.861 31.1534C131.977 31.2051 132.068 31.2304 132.132 31.2304C132.313 31.2304 132.527 30.889 132.772 30.204H133.159Z" fill="#262626"/>
<path fill-rule="evenodd" clip-rule="evenodd" d="M114.458 43.1646C114.418 42.9715 114.445 42.7198 114.536 42.4095L118.332 28.6543C117.724 28.9036 117.095 29.0978 116.453 29.2348C115.794 29.3646 115.039 29.4348 114.186 29.4485L114.051 29.8554C114.683 29.8554 115.078 29.9589 115.232 30.1658C115.387 30.3727 115.407 30.6945 115.291 31.1336L114.392 34.5233C114.336 34.3597 114.238 34.2133 114.109 34.098C113.89 33.8911 113.586 33.7876 113.199 33.7876C112.423 33.7876 111.707 33.9623 111.048 34.3106C110.386 34.6726 109.79 35.1444 109.285 35.706C108.755 36.2751 108.305 36.914 107.948 37.6049C107.597 38.2772 107.317 38.985 107.115 39.7164C106.931 40.3463 106.833 40.9982 106.824 41.6543C106.824 42.2738 106.922 42.7842 107.115 43.1842C107.309 43.5715 107.574 43.8623 107.909 44.0554C108.245 44.2371 108.62 44.3267 109.033 44.3267C109.666 44.3267 110.235 44.1405 110.738 43.7658C111.241 43.3784 111.713 42.7842 112.152 41.983C112.336 41.6566 112.521 41.2899 112.706 40.883L112.579 41.3635C112.462 41.7418 112.384 42.1312 112.346 42.5256C112.315 42.8122 112.341 43.102 112.423 43.3784C112.578 44.0106 113.055 44.3279 113.858 44.3279C114.154 44.3279 114.458 44.2692 114.768 44.1531C115.078 44.0371 115.368 43.8371 115.639 43.552C115.924 43.2681 116.15 42.8623 116.317 42.3313L116.783 40.9175H116.415L116.105 41.7888C115.873 42.4485 115.653 42.8934 115.446 43.1256C115.252 43.3463 115.052 43.4554 114.845 43.4554C114.627 43.4554 114.497 43.3589 114.458 43.1646ZM113.423 38.1761C113.278 38.6486 113.12 39.098 112.946 39.5221C112.624 40.3497 112.282 41.06 111.92 41.6543C111.571 42.2348 111.229 42.6865 110.893 43.0106C110.558 43.3198 110.261 43.475 110.001 43.475C109.756 43.475 109.576 43.3589 109.46 43.1267C109.356 42.8807 109.305 42.5129 109.305 42.0221C109.305 41.3244 109.382 40.6141 109.537 39.8911C109.692 39.1554 109.905 38.4508 110.176 37.7796C110.426 37.1495 110.738 36.5458 111.107 35.9773C111.455 35.4348 111.823 35.0083 112.21 34.698C112.61 34.3876 113.005 34.2336 113.392 34.2336C113.651 34.2336 113.858 34.3244 114.013 34.5049C114.121 34.6221 114.204 34.7922 114.261 35.0175L113.423 38.1761Z" fill="#262626"/>
<path d="M98.538 44.0549H96.1553L98.5001 35.7055C98.5518 35.525 98.5898 35.3572 98.615 35.2021C98.6438 35.0722 98.6306 34.9365 98.5771 34.8147C98.538 34.7112 98.4277 34.6595 98.2472 34.6595C98.0024 34.6595 97.776 34.7825 97.5691 35.0273C97.376 35.2595 97.1622 35.6929 96.93 36.3262L96.6013 37.2354H96.2334L96.7369 35.7825C97.0082 35.0204 97.3576 34.4975 97.7829 34.2135C98.2081 33.9296 98.6794 33.7883 99.1967 33.7883C99.6231 33.7883 99.9461 33.871 100.166 34.0388C100.391 34.1955 100.55 34.4302 100.612 34.6975C100.676 34.9561 100.689 35.2469 100.651 35.5699C100.611 35.8831 100.553 36.1936 100.476 36.4998L99.83 39.0193C100.104 38.3423 100.37 37.7492 100.631 37.2354C101.07 36.371 101.496 35.686 101.909 35.1825C102.323 34.6653 102.748 34.3044 103.187 34.0975C103.628 33.8906 104.085 33.7871 104.563 33.7871C105.196 33.7871 105.636 33.9296 105.881 34.2135C106.139 34.4848 106.262 34.8457 106.248 35.2986C106.248 35.7377 106.166 36.2089 105.997 36.7124L104.099 42.4089C103.982 42.7572 103.95 43.0227 104.001 43.202C104.053 43.371 104.183 43.4549 104.39 43.4549C104.583 43.4549 104.783 43.3457 104.99 43.1262C105.209 42.9055 105.441 42.4595 105.687 41.7883L105.998 40.917H106.366L105.881 42.3308C105.7 42.8733 105.467 43.2871 105.184 43.5722C104.941 43.838 104.634 44.0377 104.292 44.1526C103.995 44.2665 103.68 44.3257 103.362 44.3273C103.027 44.3273 102.736 44.2687 102.491 44.1526C102.258 44.0492 102.077 43.8998 101.948 43.7067C101.781 43.4618 101.709 43.1446 101.735 42.7572C101.761 42.3699 101.864 41.9055 102.045 41.363L103.808 36.0354C103.873 35.8285 103.924 35.6216 103.963 35.4147C104.004 35.2352 103.997 35.0483 103.944 34.8722C103.892 34.717 103.756 34.64 103.537 34.64C103.266 34.64 102.968 34.7952 102.646 35.1044C102.323 35.4021 101.986 35.8216 101.638 36.3641C101.251 36.9754 100.902 37.6095 100.592 38.263C100.244 38.9871 99.907 39.7733 99.584 40.6262C99.2737 41.4653 98.9978 42.3377 98.7518 43.2423L98.7633 43.1791L98.538 44.0549Z" fill="#262626"/>
<path fill-rule="evenodd" clip-rule="evenodd" d="M91.2987 41.0624L91.2183 41.3636C91.0962 41.8012 91.0116 42.2484 90.9654 42.7004C90.9263 43.1142 90.9907 43.4624 91.1585 43.7463C91.4171 44.1337 91.8562 44.328 92.4769 44.328C92.8081 44.3256 93.1354 44.2555 93.4386 44.1221C93.7418 43.9887 94.0146 43.7947 94.2401 43.5521C94.5114 43.2555 94.7367 42.8417 94.9183 42.313L95.401 40.8992H95.0332L94.7436 41.7705C94.5102 42.4417 94.2838 42.8877 94.0654 43.1073C93.8458 43.3257 93.6321 43.436 93.4263 43.436C93.2573 43.436 93.1482 43.3843 93.0964 43.2808C93.056 43.1492 93.0427 43.0108 93.0573 42.8739C93.0838 42.7061 93.1217 42.5452 93.1746 42.39L95.6734 33.7877C95.2847 33.8807 94.8898 33.9456 94.4918 33.982C94.0907 34.0211 93.6585 34.0463 93.193 34.059L92.9125 35.0958C92.9006 34.8326 92.824 34.5764 92.6895 34.3498C92.5887 34.1734 92.4416 34.0279 92.2642 33.9288C92.0868 33.8298 91.8857 33.781 91.6826 33.7877C91.1137 33.7877 90.5447 33.9624 89.9769 34.3107C89.4091 34.6601 88.8734 35.1245 88.3688 35.7061C87.847 36.3 87.3922 36.9495 87.0125 37.6429C86.6315 38.3381 86.3263 39.0722 86.1022 39.8325C85.8908 40.5167 85.7801 41.228 85.7734 41.944C85.7734 42.6682 85.9412 43.2486 86.2769 43.6877C86.6125 44.1142 87.1298 44.3268 87.8263 44.3268C88.3171 44.3268 88.7895 44.1854 89.2401 43.9015C89.7056 43.6165 90.1459 43.1452 90.5585 42.4877C90.8148 42.0912 91.0608 41.6165 91.2987 41.0624ZM89.6286 43.0291C89.3321 43.3004 89.0665 43.436 88.8344 43.436C88.6401 43.436 88.4918 43.3394 88.3884 43.1452C88.2987 42.9383 88.2527 42.5969 88.2527 42.1188C88.2527 41.4337 88.3309 40.7303 88.4861 40.0073C88.6401 39.2831 88.847 38.5866 89.1056 37.9153C89.3769 37.2429 89.6734 36.6429 89.9964 36.113C90.3194 35.5843 90.6424 35.1636 90.9654 34.8532C91.301 34.5429 91.6171 34.3889 91.9148 34.3889C92.2252 34.3889 92.4436 34.544 92.5734 34.8532C92.7022 35.1337 92.7344 35.5096 92.6734 35.9797L92.101 38.0969L92.1665 37.7601C91.9596 38.5866 91.7148 39.3486 91.4309 40.0463C91.1458 40.7429 90.8493 41.344 90.5389 41.8475C90.2286 42.3509 89.9252 42.7452 89.6286 43.0291Z" fill="#262626"/>
<path d="M80.5917 44.055H78.209L80.5331 35.7055C80.6492 35.3182 80.6883 35.0469 80.6492 34.8917C80.6113 34.7366 80.4952 34.6596 80.3009 34.6596C80.0561 34.6596 79.8297 34.7825 79.6228 35.0274C79.4159 35.2722 79.2032 35.7055 78.9837 36.3262L78.6538 37.2354H78.286L78.7894 35.7825C78.9711 35.2653 79.1963 34.8664 79.4676 34.5814C79.7389 34.2848 80.0366 34.0779 80.3596 33.9619C80.6814 33.8458 81.0113 33.7871 81.3481 33.7871C81.7607 33.7871 82.0642 33.871 82.2573 34.04C82.4627 34.2049 82.6009 34.4391 82.6458 34.6986C82.7101 34.9699 82.7228 35.2664 82.6837 35.5894C82.6584 35.8998 82.6067 36.2032 82.5285 36.4998L82.2182 37.7147L82.2492 37.6308L82.2963 37.5078C82.6584 36.5906 83.0067 35.8607 83.3423 35.3182C83.6917 34.763 84.0596 34.3687 84.4469 34.1366C84.8265 33.9059 85.2625 33.7849 85.7067 33.7871C86.1711 33.7871 86.5262 33.9228 86.7722 34.194C87.0297 34.4653 87.1596 34.8009 87.1596 35.2021C87.1596 35.5239 87.0814 35.8285 86.9262 36.1124C86.7759 36.3788 86.5633 36.6047 86.3067 36.771C86.0506 36.9289 85.7545 37.0095 85.4538 37.0032C85.132 37.0032 84.8733 36.9193 84.6791 36.7515C84.4986 36.5837 84.4078 36.3377 84.4078 36.0159C84.4078 35.7308 84.4722 35.4733 84.6021 35.24C84.7308 35.0078 84.8986 34.8147 85.1055 34.6596C85.3124 34.4917 85.5377 34.3756 85.7837 34.3101C85.7565 34.2837 85.7234 34.264 85.6871 34.2527C85.6614 34.2439 85.6348 34.2382 85.6078 34.2354C85.5887 34.2336 85.5695 34.2328 85.5504 34.2331C85.2676 34.2331 84.9756 34.3366 84.6791 34.5435C84.3825 34.7366 84.0722 35.0538 83.7492 35.4929C83.4274 35.932 83.0975 36.5124 82.7607 37.2354C82.382 38.0903 82.046 38.9634 81.7538 39.8515C81.6078 40.2802 81.4607 40.7435 81.3136 41.2389L80.5917 44.055Z" fill="#262626"/>
<path fill-rule="evenodd" clip-rule="evenodd" d="M76.9675 31.0571C76.3215 30.5916 75.2882 30.3594 73.8675 30.3594C73.4284 30.3594 72.9893 30.3663 72.5491 30.3789C72.1238 30.3916 71.633 30.3985 71.0778 30.3985H70.1088C69.7594 30.3847 69.4307 30.3789 69.1203 30.3789C68.862 30.3675 68.6038 30.3545 68.3456 30.3398L68.2491 30.7272C68.7525 30.7272 69.0951 30.7916 69.2755 30.9215C69.4698 31.0364 69.5594 31.218 69.5468 31.464C69.5207 31.7777 69.4688 32.0887 69.3916 32.3939L66.8341 42.0031C66.7192 42.4674 66.5893 42.8169 66.4468 43.049C66.3181 43.2711 66.1111 43.4371 65.8663 43.5146C65.6203 43.5916 65.2778 43.6433 64.8387 43.6686L64.7617 44.0559C64.9801 44.0444 65.2456 44.0375 65.5548 44.0375C65.8652 44.0238 66.1951 44.018 66.5433 44.018C67.5183 43.9884 68.4941 43.9949 69.4686 44.0375C69.9985 44.049 70.4836 44.0571 70.9226 44.0571C71.7617 44.0571 72.556 43.972 73.3054 43.8042C73.9962 43.6475 74.6569 43.3797 75.2617 43.0111C75.8028 42.6888 76.2607 42.2439 76.5985 41.7123C76.9341 41.195 77.102 40.5893 77.102 39.8916C77.102 39.1031 76.7801 38.4249 76.1341 37.8571C75.5019 37.2881 74.4997 36.9525 73.1307 36.849C73.9848 36.7264 74.8147 36.4716 75.5905 36.0939C76.3146 35.7192 76.8824 35.2605 77.2962 34.718C77.7127 34.2029 77.9385 33.5597 77.9353 32.8973C77.9353 32.1226 77.6146 31.5088 76.9675 31.0571ZM70.7836 37.1019L69.4882 42.0031C69.4111 42.3249 69.3594 42.61 69.3341 42.8548C69.3203 43.1008 69.3847 43.2881 69.5272 43.418C69.6698 43.5467 69.9341 43.6111 70.3215 43.6111C71.2387 43.6111 71.9882 43.4364 72.5686 43.0881C73.1374 42.7537 73.5905 42.2536 73.8675 41.6548C74.1514 41.0341 74.2928 40.3364 74.2928 39.5628C74.2928 39.0835 74.2088 38.664 74.041 38.3031C73.8933 37.9364 73.6276 37.6294 73.2859 37.4306C72.9376 37.2111 72.4721 37.1019 71.8905 37.1019H70.7836ZM70.8709 36.772H71.756C72.4916 36.772 73.118 36.5847 73.6341 36.21C74.164 35.8226 74.5652 35.3192 74.8364 34.6996C75.1189 34.0858 75.2641 33.4178 75.2617 32.7421C75.2617 32.0962 75.133 31.5996 74.8744 31.2502C74.6295 30.9019 74.1962 30.7272 73.5755 30.7272C73.1249 30.7272 72.8019 30.818 72.6077 30.9985C72.4146 31.1663 72.2468 31.5341 72.1042 32.1019L70.8709 36.772Z" fill="#262626"/>
</g>
<defs>
<clipPath id="clip0_1893_5056">
<rect width="200" height="44.8276" fill="white"/>
</clipPath>
</defs>
</svg>
